<svg width="158" height="77" viewBox="0 0 158 77" fill="none" xmlns="http://www.w3.org/2000/svg">
<path d="M157.5 38.5C157.5 48.8333 148.89 58.3305 134.642 65.2741C120.428 72.2013 100.756 76.5 79 76.5C57.2438 76.5 37.5719 72.2013 23.3576 65.2741C9.10966 58.3305 0.5 48.8333 0.5 38.5C0.5 28.1667 9.10966 18.6695 23.3576 11.7259C37.5719 4.79865 57.2438 0.5 79 0.5C100.756 0.5 120.428 4.79865 134.642 11.7259C148.89 18.6695 157.5 28.1667 157.5 38.5Z" fill="#96B83D" stroke="#96B83D"/>
<path d="M157.5 38.5C157.5 48.8368 149.001 58.3332 134.943 65.2753C120.916 72.2017 101.504 76.5 80.0337 76.5C74.6581 76.5 70.9655 76.2302 68.6021 75.7287C67.4179 75.4774 66.6061 75.1756 66.0892 74.8471C65.582 74.5248 65.4053 74.2098 65.3736 73.9201C65.339 73.6041 65.4604 73.1841 65.8332 72.6337C66.2015 72.09 66.7756 71.4776 67.5366 70.7977C69.0578 69.4385 71.2448 67.8797 73.7959 66.1364C74.5898 65.594 75.418 65.0343 76.2701 64.4585C80.8703 61.3499 86.17 57.7687 90.5574 53.8592C95.7362 49.2446 99.7886 44.0503 99.7886 38.5C99.7886 32.9497 95.7362 27.7554 90.5574 23.1408C86.17 19.2313 80.8703 15.6501 76.2701 12.5415C75.418 11.9657 74.5898 11.406 73.7959 10.8636C71.2448 9.12032 69.0578 7.56151 67.5366 6.20234C66.7756 5.52239 66.2015 4.91004 65.8332 4.36634C65.4604 3.8159 65.339 3.39586 65.3736 3.07993C65.4053 2.79018 65.582 2.47525 66.0892 2.15287C66.6061 1.82438 67.4179 1.52255 68.6021 1.27129C70.9655 0.769809 74.6581 0.5 80.0337 0.5C101.504 0.5 120.916 4.79832 134.943 11.7247C149.001 18.6668 157.5 28.1632 157.5 38.5Z" fill="#E0EE8A" stroke="#E0EE8A"/>
<path d="M46.2642 43.5515C46.4522 43.7566 46.8278 44.1666 47.1418 44.4369C47.4559 44.7072 47.7085 44.8381 48.22 44.8903C48.7316 44.9425 49.5022 44.9164 50.4638 44.6721C51.4254 44.4278 52.5781 43.9655 53.4943 43.3811C54.4106 42.7967 55.0905 42.0902 55.6539 41.279C56.2172 40.4679 56.664 39.552 56.894 38.5534C57.1239 37.5548 57.1368 36.4733 56.9977 35.6316C56.8586 34.7898 56.5672 34.188 56.0945 33.6514C55.6219 33.1149 54.9678 32.6439 54.2781 32.2644C53.5885 31.8849 52.8632 31.597 52.1314 31.4269C51.3996 31.2567 50.6614 31.2044 49.826 31.3221C48.9905 31.4398 48.058 31.7276 47.2258 32.0983C46.3937 32.469 45.6619 32.9226 44.8977 33.5114C44.1335 34.1002 43.337 34.8242 42.5243 35.7706C41.7115 36.7171 40.8826 37.8859 40.2188 39.0548C39.5551 40.2237 39.0564 41.3925 38.7521 42.5702C38.4477 43.7479 38.3376 44.9342 38.4899 46.0333C38.6423 47.1325 39.0567 48.1443 39.7659 49.0033C40.4751 49.8624 41.4788 50.5689 42.4081 51.0355C43.3374 51.5021 44.1921 51.7289 45.2444 51.8509C46.2967 51.973 47.5465 51.9904 48.751 51.7287C49.9554 51.467 51.1146 50.9262 51.8754 50.429C52.6362 49.9319 52.9988 49.4783 53.1704 48.9334C53.342 48.3884 53.3226 47.7517 53.2094 47.2153C53.0962 46.6788 52.889 46.2427 52.4843 45.9852C52.0796 45.7276 51.4774 45.6491 50.6711 45.6883C49.8648 45.7275 48.8546 45.8845 48.1488 45.9805C47.4429 46.0765 47.0414 46.1113 46.6723 46.0025C46.3032 45.8936 45.9665 45.6406 45.7527 45.2613C45.5388 44.882 45.4482 44.3761 45.4384 43.9878C45.4286 43.5995 45.4998 43.3291 45.6198 43.2419C45.7399 43.1546 45.9082 43.2506 45.9922 43.2984C46.0762 43.3463 46.0762 43.3463 46.2642 43.5515Z" fill="#007C41" fill-opacity="0.997118" stroke="white" stroke-width="0.999999"/>
<path d="M47.4843 39.8397C47.5523 39.735 47.6883 39.5257 47.9053 39.2378C48.1222 38.95 48.4201 38.5836 48.6953 38.2739C48.9706 37.9643 49.2231 37.7113 49.466 37.5063C49.7089 37.3013 49.942 37.1443 50.1461 37.0484C50.3501 36.9524 50.525 36.9176 50.6416 36.9221C50.7582 36.9266 50.8165 36.9702 50.8584 37.0794C50.9004 37.1885 50.9263 37.3629 50.9003 37.6332C50.8743 37.9036 50.7966 38.2699 50.5053 38.6797C50.2139 39.0895 49.7088 39.5431 49.2556 39.8353C48.8024 40.1275 48.4009 40.2583 48.1031 40.2498C47.8053 40.2412 47.611 40.0929 47.5137 40.0187C47.4164 39.9444 47.4163 39.9444 47.4843 39.8397Z" fill="url(#paint0_linear_601_315)" stroke="white" stroke-width="0.999999"/>
<path d="M65.7163 43.9957C65.9043 44.2009 66.2799 44.6109 66.594 44.8812C66.9081 45.1515 67.1606 45.2823 67.6722 45.3346C68.1837 45.3868 68.9544 45.3606 69.916 45.1164C70.8776 44.8721 72.0302 44.4098 72.9465 43.8254C73.8627 43.241 74.5427 42.5345 75.106 41.7233C75.6694 40.9122 76.1162 39.9963 76.3461 38.9977C76.576 37.9991 76.589 36.9175 76.4499 36.0758C76.3108 35.2341 76.0193 34.6323 75.5467 34.0957C75.074 33.5592 74.42 33.0881 73.7303 32.7086C73.0406 32.3291 72.3154 32.0413 71.5836 31.8711C70.8518 31.701 70.1135 31.6486 69.2781 31.7663C68.4427 31.8841 67.5102 32.1719 66.678 32.5426C65.8458 32.9133 65.1141 33.3669 64.3499 33.9557C63.5857 34.5445 62.7892 35.2685 61.9764 36.2149C61.1637 37.1614 60.3348 38.3302 59.671 39.4991C59.0072 40.668 58.5086 41.8368 58.2042 43.0145C57.8999 44.1922 57.7898 45.3785 57.9421 46.4776C58.0944 47.5767 58.5088 48.5885 59.218 49.4476C59.9272 50.3067 60.931 51.0132 61.8602 51.4798C62.7895 51.9464 63.6443 52.1731 64.6966 52.2952C65.7489 52.4173 66.9987 52.4347 68.2031 52.173C69.4076 51.9113 70.5667 51.3705 71.3275 50.8733C72.0883 50.3762 72.451 49.9226 72.6226 49.3776C72.7942 48.8327 72.7748 48.196 72.6616 47.6595C72.5483 47.1231 72.3411 46.687 71.9364 46.4294C71.5317 46.1719 70.9295 46.0934 70.1232 46.1326C69.317 46.1718 68.3068 46.3288 67.6009 46.4248C66.895 46.5207 66.4936 46.5556 66.1245 46.4467C65.7554 46.3379 65.4187 46.0849 65.2048 45.7056C64.991 45.3263 64.9003 44.8204 64.8905 44.4321C64.8808 44.0438 64.952 43.7734 65.072 43.6861C65.192 43.5989 65.3604 43.6949 65.4444 43.7427C65.5284 43.7906 65.5284 43.7906 65.7163 43.9957Z" fill="#007C41" fill-opacity="0.997118" stroke="white" stroke-width="0.999999"/>
<path d="M66.9365 40.2839C67.0045 40.1793 67.1405 39.9699 67.3574 39.682C67.5744 39.3942 67.8722 39.0278 68.1475 38.7181C68.4227 38.4085 68.6753 38.1555 68.9182 37.9505C69.161 37.7455 69.3942 37.5885 69.5982 37.4926C69.8023 37.3967 69.9771 37.3618 70.0937 37.3663C70.2104 37.3708 70.2686 37.4144 70.3106 37.5236C70.3525 37.6327 70.3784 37.8072 70.3525 38.0775C70.3265 38.3478 70.2488 38.7141 69.9574 39.1239C69.6661 39.5337 69.161 39.9873 68.7078 40.2795C68.2545 40.5717 67.853 40.7025 67.5552 40.694C67.2574 40.6854 67.0632 40.5371 66.9658 40.4629C66.8685 40.3886 66.8685 40.3886 66.9365 40.2839Z" fill="url(#paint1_linear_601_315)" stroke="url(#paint2_linear_601_315)" stroke-width="0.999999"/>
<path d="M73.4231 54.0144C74.0383 52.7497 75.2687 50.2201 76.4861 47.6643C77.7036 45.1086 78.908 42.5267 79.711 40.852C80.514 39.1772 80.9155 38.4096 81.1422 37.9386C81.3688 37.4677 81.4206 37.2932 81.3043 37.0404C81.1879 36.7875 80.903 36.456 80.7539 36.0984C80.6048 35.7408 80.5918 35.357 80.6824 34.9992C80.7731 34.6414 80.9674 34.3099 81.3043 34.1529C81.6412 33.9958 82.1204 34.0134 82.5217 33.5599C82.923 33.1064 83.2468 32.1818 83.4475 31.6148C83.6483 31.0479 83.726 30.8385 83.9852 30.6727C84.2444 30.5068 84.6847 30.3847 85.2352 30.4633C85.7857 30.542 86.4463 30.8211 86.9384 31.1614C87.4305 31.5017 87.7543 31.9029 87.9356 32.1559C88.1169 32.409 88.1557 32.5136 88.9264 32.5046C89.6971 32.4949 91.1995 32.3735 92.1838 32.4783C93.1682 32.5832 93.6344 32.9146 94.2367 33.5514C94.8389 34.1883 95.5771 35.1303 96.121 36.0637C96.6649 36.9971 97.0146 37.9217 97.144 38.7851C97.2734 39.6486 97.1827 40.4511 96.9561 41.4192C96.7294 42.3874 96.3668 43.5213 95.7451 44.69C95.1235 45.8588 94.2428 47.0625 93.3621 48.1092C92.4814 49.1559 91.6007 50.0456 90.7977 50.7609C89.9948 51.4761 89.2695 52.0169 88.609 52.3484C87.9486 52.6799 87.3528 52.802 86.6988 52.7323C86.0448 52.6626 85.3325 52.4009 84.8273 52.0521C84.3222 51.7034 84.0243 51.2673 83.8042 50.9881C83.584 50.7089 83.4416 50.5868 83.3508 50.4735C83.2601 50.3602 83.2212 50.2556 83.1304 50.4211C83.0396 50.5867 82.8971 51.0227 82.4697 52.0258C82.0423 53.0289 81.33 54.599 80.6889 55.9859C80.0478 57.3728 79.4779 58.5765 79.1153 59.2655C78.7527 59.9545 78.5973 60.129 78.2931 60.1291C77.9889 60.1292 77.5356 59.9547 77.2635 59.7368C76.9914 59.5189 76.9008 59.2573 76.5835 59.1436C76.2663 59.03 75.7223 59.0649 75.1654 58.9167C74.6086 58.7685 74.0387 58.437 73.6435 57.8004C73.2484 57.1638 73.0282 56.2218 72.9181 55.7505C72.8079 55.2792 72.8079 55.2792 73.4231 54.0144Z" fill="#007C41" fill-opacity="0.997118" stroke="white" stroke-width="0.999999"/>
<path d="M107.35 37.8687C107.039 37.9907 106.417 38.235 106.139 38.3136C105.86 38.3921 105.925 38.3055 105.757 38.3217C105.588 38.339 105.187 38.4612 104.863 38.5397C104.539 38.6183 104.293 38.6532 104.028 38.6968C103.762 38.7405 103.477 38.7927 103.231 38.8188C102.985 38.845 102.778 38.845 102.661 38.6882C102.545 38.5314 102.519 38.2174 102.486 37.8685C102.454 37.5196 102.415 37.1358 102.37 36.7695C102.324 36.4031 102.273 36.0543 102.214 35.6443C102.156 35.2343 102.091 34.7633 102.065 34.4405C102.039 34.1177 102.052 33.9432 102.188 33.7249C102.324 33.5066 102.583 33.245 103.095 33.0269C103.607 32.8088 104.371 32.6344 105.291 32.4861C106.21 32.3378 107.285 32.2157 108.522 32.0936C109.759 31.9716 111.158 31.8494 112.271 31.7883C113.385 31.7273 114.214 31.7273 114.732 31.8146C115.25 31.9019 115.458 32.0765 115.645 32.2509C115.833 32.4254 116.002 32.5999 116.293 33.0622C116.584 33.5246 116.999 34.2747 117.271 34.8766C117.543 35.4785 117.672 35.9321 117.698 36.2896C117.724 36.647 117.646 36.9087 117.005 37.6326C116.364 38.3564 115.159 39.5427 113.89 40.729C112.621 41.9153 111.287 43.1015 110.354 43.8778C109.422 44.6541 108.891 45.0205 108.574 45.2647C108.256 45.509 108.153 45.6312 108.153 45.6922C108.153 45.7532 108.257 45.7532 108.373 45.7183C108.489 45.6835 108.619 45.6137 108.878 45.5438C109.137 45.4741 109.526 45.4043 110.257 45.2909C110.989 45.1775 112.064 45.0205 112.835 45.0904C113.606 45.1604 114.072 45.4569 114.376 46.0502C114.68 46.6435 114.823 47.5332 114.693 48.3791C114.564 49.225 114.162 50.0275 113.787 50.542C113.411 51.0566 113.061 51.2834 111.766 51.3968C110.471 51.5102 108.231 51.5102 106.961 51.4049C105.692 51.3004 105.394 51.091 104.921 51.0385C104.449 50.9861 103.801 51.0908 103.432 51.2041C103.063 51.3175 102.972 51.4396 102.791 51.5617C102.61 51.6838 102.338 51.8059 102.079 51.8845C101.82 51.963 101.573 51.9979 101.03 51.9805C100.486 51.9632 99.6438 51.8934 99.1645 51.7017C98.6852 51.51 98.5686 51.196 98.4715 50.8907C98.3743 50.5854 98.2966 50.2888 98.057 49.687C97.8175 49.0851 97.416 48.178 97.2993 47.6107C97.1826 47.0435 97.351 46.8167 99.1254 45.2291C100.9 43.6415 104.28 40.6933 105.97 39.2192C107.66 37.7451 107.66 37.7466 107.35 37.8687Z" fill="#007C41" fill-opacity="0.997118" stroke="white" stroke-width="0.999999"/>
<path d="M127.072 25.3786C127.315 24.9963 127.8 24.2314 128.139 23.7256C128.478 23.2198 128.67 22.9731 128.808 22.8622C128.945 22.7512 129.028 22.7759 129.284 22.9117C129.541 23.0474 129.971 23.2941 130.415 23.5409C130.859 23.7876 131.317 24.0342 131.917 24.392C132.517 24.7498 133.259 25.2185 133.739 25.5578C134.22 25.8971 134.44 26.1068 134.577 26.2919C134.715 26.4771 134.77 26.6374 134.362 27.4884C133.954 28.3393 133.084 29.8812 132.507 30.7693C131.93 31.6574 131.647 31.8918 131.363 32.0707C131.079 32.2495 130.795 32.3729 130.099 32.0462C129.403 31.7195 128.295 30.9423 127.585 30.4181C126.875 29.8938 126.564 29.6225 126.367 29.2401C126.17 28.8578 126.088 28.3644 126.184 27.7659C126.28 27.1675 126.555 26.4643 126.692 26.1127C126.829 25.7611 126.829 25.7611 127.072 25.3786Z" fill="#007C41" fill-opacity="0.997118" stroke="white" stroke-width="0.999999"/>
<path d="M123.954 34.5194C122.653 37.036 120.455 41.7976 119.274 44.4992C118.093 47.2008 117.928 47.8422 117.964 48.4468C118.001 49.0514 118.239 49.6188 118.707 49.9763C119.174 50.3339 119.87 50.4819 120.483 50.8274C121.097 51.173 121.628 51.7157 122.196 51.8882C122.764 52.0607 123.368 51.8634 123.817 51.6536C124.265 51.4439 124.558 51.2218 125.3 49.3716C126.042 47.5213 127.232 44.0428 127.883 42.1554C128.533 40.268 128.643 39.9719 128.899 39.5524C129.156 39.1329 129.559 38.5902 129.87 38.2694C130.182 37.9486 130.401 37.85 130.557 37.3937C130.712 36.9375 130.804 36.1234 130.795 35.6177C130.787 35.112 130.676 34.9146 130.209 34.4828C129.742 34.0509 128.918 33.3848 128.167 32.842C127.416 32.2992 126.738 31.8798 126.198 31.8056C125.657 31.7314 125.254 32.0028 123.954 34.5194Z" fill="#007C41" fill-opacity="0.997118" stroke="white" stroke-width="0.999999"/>
<path d="M85.5122 44.579C85.8465 43.8574 86.515 42.4141 86.9821 41.3471C87.4491 40.2801 87.7147 39.5892 87.9208 39.1821C88.127 38.7749 88.2735 38.6515 88.585 38.5775C88.8965 38.5035 89.3727 38.4789 89.6612 38.4665C89.9497 38.4535 90.0504 38.4536 90.096 38.627C90.1417 38.7999 90.1325 39.1453 90.1417 39.4784C90.1508 39.8115 90.1783 40.1323 90.1188 40.3911C90.0592 40.6499 89.9127 40.8473 89.4914 41.4764C89.0701 42.1056 88.3741 43.1664 87.7194 43.9682C87.0646 44.77 86.451 45.3127 86.039 45.6211C85.6269 45.9295 85.4163 46.0035 85.3063 45.9113C85.1963 45.8191 85.1871 45.5599 85.1825 45.4302C85.178 45.3005 85.178 45.3005 85.5122 44.579Z" fill="url(#paint3_linear_601_315)" stroke="url(#paint4_linear_601_315)" stroke-width="0.999999"/>
<path d="M15.6104 44.533C16.6724 42.6315 18.7965 38.8285 20.0398 36.4908C21.2832 34.1532 21.6458 33.2809 21.853 32.7227C22.0603 32.1645 22.1121 31.9203 21.918 31.5889C21.7239 31.2575 21.2836 30.8388 20.9339 30.5596C20.5842 30.2804 20.3252 30.1408 20.312 29.3558C20.2989 28.5708 20.532 27.1404 20.8169 26.2156C21.1019 25.2908 21.4386 24.8721 22.7987 24.4883C24.1588 24.1045 26.5418 23.7556 28.64 23.7207C30.7382 23.6859 32.5514 23.965 33.8466 24.5409C35.1417 25.1168 35.9188 25.989 36.7218 26.966C37.5248 27.9429 38.3537 29.0245 38.9624 29.9143C39.5711 30.804 39.9596 31.5018 39.9335 32.8451C39.9074 34.1883 39.4671 36.177 38.4957 38.4971C37.5244 40.8173 36.022 43.4689 34.3384 45.5274C32.6547 47.5859 30.7897 49.0513 29.1061 50.0282C27.4224 51.0051 25.9201 51.4936 24.8193 51.6681C23.7185 51.8427 23.0191 51.703 22.3974 51.4241C21.7757 51.1451 21.2318 50.7264 20.6488 50.8134C20.0658 50.9004 19.4442 51.4937 18.7838 51.581C18.1234 51.6683 17.424 51.2497 16.6987 50.6566C15.9734 50.0635 15.2223 49.296 14.8594 48.5633C14.4966 47.8306 14.5225 47.1328 14.5355 46.7837C14.5484 46.4346 14.5484 46.4346 15.6104 44.533Z" fill="#007C41" fill-opacity="0.997118" stroke="white" stroke-width="0.999999"/>
<path fill-rule="evenodd" clip-rule="evenodd" d="M28.9247 30.8738C28.7175 31.2928 29.132 31.851 29.3261 32.3395C29.5202 32.828 29.4943 33.2466 29.2482 34.1363C29.0021 35.0259 28.5358 36.3866 27.7976 38.009C27.0593 39.6313 26.0491 41.5154 25.3886 42.6668C24.7281 43.8181 24.4173 44.2368 24.8448 44.1321C25.2723 44.0274 26.4379 43.3993 27.5516 42.3177C28.6654 41.2362 29.7274 39.701 30.5563 38.1136C31.3852 36.5261 31.9809 34.8863 32.24 33.6827C32.4991 32.4791 32.4214 31.7115 32.1237 31.1532C31.8259 30.5948 31.3079 30.2459 30.6343 30.2109C29.9607 30.1758 29.1319 30.4549 28.9247 30.8738Z" fill="url(#paint5_linear_601_315)" stroke="white" stroke-width="0.999999"/>
<path d="M42.7 69.6974C42.56 69.6974 42.49 69.6321 42.49 69.5014C42.49 69.3614 42.56 69.2914 42.7 69.2914C43.092 69.2914 43.3813 69.2681 43.568 69.2214C43.7547 69.1747 43.876 69.0907 43.932 68.9694C43.9973 68.8387 44.03 68.6614 44.03 68.4374V60.7654C44.03 60.5601 44.002 60.3967 43.946 60.2754C43.8993 60.1541 43.778 60.0701 43.582 60.0234C43.3953 59.9674 43.092 59.9394 42.672 59.9394C42.6253 59.9394 42.5833 59.9207 42.546 59.8834C42.5087 59.8367 42.49 59.7901 42.49 59.7434C42.49 59.6034 42.5507 59.5334 42.672 59.5334C42.756 59.5334 42.9893 59.5427 43.372 59.5614C43.7547 59.5707 44.2587 59.5754 44.884 59.5754C45.6587 59.5754 46.3213 59.5707 46.872 59.5614C47.432 59.5427 47.88 59.5334 48.216 59.5334C49.28 59.5334 50.106 59.7761 50.694 60.2614C51.282 60.7467 51.576 61.4327 51.576 62.3194C51.576 63.1874 51.3287 63.8641 50.834 64.3494C50.3487 64.8254 49.546 65.0634 48.426 65.0634H45.738V68.4374C45.738 68.7734 45.8407 69.0021 46.046 69.1234C46.2513 69.2354 46.662 69.2914 47.278 69.2914C47.3993 69.2914 47.46 69.3614 47.46 69.5014C47.46 69.6321 47.3993 69.6974 47.278 69.6974C47.1847 69.6974 46.9233 69.6927 46.494 69.6834C46.074 69.6647 45.5373 69.6554 44.884 69.6554C44.2587 69.6554 43.7593 69.6647 43.386 69.6834C43.022 69.6927 42.7933 69.6974 42.7 69.6974ZM45.738 64.6014H47.74C48.3467 64.6014 48.818 64.3914 49.154 63.9714C49.49 63.5514 49.658 63.0007 49.658 62.3194C49.658 61.8901 49.5927 61.4981 49.462 61.1434C49.3407 60.7887 49.1213 60.5041 48.804 60.2894C48.496 60.0747 48.062 59.9674 47.502 59.9674H45.738V64.6014ZM52.5851 69.6974C52.4451 69.6974 52.3751 69.6181 52.3751 69.4594C52.3751 69.3101 52.4451 69.2354 52.5851 69.2354C52.9678 69.2354 53.2524 69.1654 53.4391 69.0254C53.6258 68.8854 53.7191 68.6474 53.7191 68.3114V64.3074C53.7191 64.1021 53.6958 63.9481 53.6491 63.8454C53.6118 63.7427 53.5278 63.6821 53.3971 63.6634C53.3504 63.6541 53.2618 63.6447 53.1311 63.6354C53.0004 63.6167 52.8698 63.6027 52.7391 63.5934C52.6178 63.5841 52.5338 63.5747 52.4871 63.5654C52.3564 63.5374 52.2911 63.4627 52.2911 63.3414C52.2911 63.1827 52.3611 63.1034 52.5011 63.1034C52.5291 63.1034 52.6504 63.1034 52.8651 63.1034C53.0891 63.0941 53.3364 63.0894 53.6071 63.0894C53.8871 63.0894 54.1391 63.0894 54.3631 63.0894C54.5964 63.0801 54.7411 63.0754 54.7971 63.0754C55.0304 63.0754 55.1471 63.1967 55.1471 63.4394V64.4474C55.2778 64.2234 55.4504 63.9947 55.6651 63.7614C55.8798 63.5187 56.1271 63.3181 56.4071 63.1594C56.6964 62.9914 57.0138 62.9074 57.3591 62.9074C57.9004 62.9074 58.3018 63.0194 58.5631 63.2434C58.8244 63.4674 58.9551 63.7567 58.9551 64.1114C58.9551 64.3167 58.8758 64.5267 58.7171 64.7414C58.5678 64.9467 58.3391 65.0494 58.0311 65.0494C57.6858 65.0494 57.4478 64.9607 57.3171 64.7834C57.1958 64.5967 57.1351 64.4147 57.1351 64.2374C57.1351 64.0507 57.1071 63.9201 57.0511 63.8454C56.9951 63.7614 56.8971 63.7194 56.7571 63.7194C56.5144 63.7194 56.2718 63.8361 56.0291 64.0694C55.7958 64.3027 55.5998 64.6061 55.4411 64.9794C55.2918 65.3434 55.2171 65.7401 55.2171 66.1694V68.2834C55.2171 68.6381 55.3244 68.8854 55.5391 69.0254C55.7631 69.1654 56.0431 69.2354 56.3791 69.2354C56.5284 69.2354 56.6031 69.3101 56.6031 69.4594C56.6031 69.6181 56.5284 69.6974 56.3791 69.6974C56.2858 69.6974 56.0664 69.6927 55.7211 69.6834C55.3851 69.6647 54.9651 69.6554 54.4611 69.6554C54.0318 69.6554 53.6351 69.6647 53.2711 69.6834C52.9164 69.6927 52.6878 69.6974 52.5851 69.6974ZM63.2022 69.8654C62.1382 69.8654 61.3029 69.5761 60.6962 68.9974C60.0989 68.4187 59.8002 67.5881 59.8002 66.5054C59.8002 65.8241 59.9356 65.2127 60.2062 64.6714C60.4769 64.1301 60.8596 63.7007 61.3542 63.3834C61.8582 63.0661 62.4416 62.9074 63.1042 62.9074C63.6082 62.9074 64.0469 63.0054 64.4202 63.2014C64.7936 63.3974 65.1016 63.6541 65.3442 63.9714C65.5869 64.2887 65.7689 64.6341 65.8902 65.0074C66.0116 65.3714 66.0722 65.7307 66.0722 66.0854C66.0722 66.2347 65.9789 66.3094 65.7922 66.3094H61.4522C61.4336 67.0187 61.4942 67.5741 61.6342 67.9754C61.7836 68.3767 62.0029 68.6567 62.2922 68.8154C62.5816 68.9741 62.9316 69.0534 63.3422 69.0534C63.8182 69.0534 64.2429 68.9507 64.6162 68.7454C64.9989 68.5401 65.3116 68.2834 65.5542 67.9754C65.6569 67.8541 65.7736 67.8354 65.9042 67.9194C66.0349 68.0034 66.0536 68.1154 65.9602 68.2554C65.7736 68.5354 65.5589 68.7967 65.3162 69.0394C65.0829 69.2821 64.7936 69.4827 64.4482 69.6414C64.1122 69.7907 63.6969 69.8654 63.2022 69.8654ZM61.4802 65.7634H64.3922C64.4109 65.3154 64.3782 64.9141 64.2942 64.5594C64.2196 64.2047 64.0842 63.9247 63.8882 63.7194C63.7016 63.5141 63.4309 63.4114 63.0762 63.4114C62.6282 63.4114 62.2782 63.6261 62.0262 64.0554C61.7742 64.4754 61.5922 65.0447 61.4802 65.7634ZM67.2807 69.6974C67.1407 69.6974 67.0707 69.6181 67.0707 69.4594C67.0707 69.3101 67.1407 69.2354 67.2807 69.2354C67.5981 69.2354 67.8127 69.1654 67.9247 69.0254C68.0461 68.8854 68.1067 68.6474 68.1067 68.3114V64.2794C68.1067 64.0834 68.0927 63.9294 68.0647 63.8174C68.0367 63.7054 67.9621 63.6447 67.8407 63.6354C67.7754 63.6261 67.6774 63.6121 67.5467 63.5934C67.4161 63.5747 67.3181 63.5607 67.2527 63.5514C67.1221 63.5327 67.0567 63.4581 67.0567 63.3274C67.0567 63.1781 67.1267 63.1034 67.2667 63.1034C67.2947 63.1034 67.3974 63.1034 67.5747 63.1034C67.7614 63.0941 67.9667 63.0894 68.1907 63.0894C68.4241 63.0894 68.6341 63.0894 68.8207 63.0894C69.0167 63.0801 69.1427 63.0754 69.1987 63.0754C69.4321 63.0754 69.5487 63.1967 69.5487 63.4394V64.1674C69.6607 63.9807 69.7961 63.7941 69.9547 63.6074C70.1227 63.4114 70.3234 63.2481 70.5567 63.1174C70.7994 62.9774 71.0934 62.9074 71.4387 62.9074C71.7374 62.9074 72.0314 62.9541 72.3207 63.0474C72.6101 63.1314 72.8574 63.2761 73.0627 63.4814C73.2774 63.6867 73.4081 63.9714 73.4547 64.3354C73.5201 64.1861 73.6227 63.9994 73.7627 63.7754C73.9121 63.5514 74.1221 63.3507 74.3927 63.1734C74.6634 62.9961 75.0087 62.9074 75.4287 62.9074C76.0727 62.9074 76.5767 63.0754 76.9407 63.4114C77.3047 63.7474 77.4867 64.2887 77.4867 65.0354V68.2834C77.4867 68.6381 77.5381 68.8854 77.6407 69.0254C77.7434 69.1654 77.8834 69.2354 78.0607 69.2354C78.2101 69.2354 78.2847 69.3101 78.2847 69.4594C78.2847 69.6181 78.2101 69.6974 78.0607 69.6974C77.9581 69.6974 77.7714 69.6927 77.5007 69.6834C77.2301 69.6647 76.9734 69.6554 76.7307 69.6554C76.5721 69.6554 76.3901 69.6601 76.1847 69.6694C75.9887 69.6694 75.8067 69.6741 75.6387 69.6834C75.4707 69.6927 75.3494 69.6974 75.2747 69.6974C75.1347 69.6974 75.0647 69.6181 75.0647 69.4594C75.0647 69.3101 75.1347 69.2354 75.2747 69.2354C75.5361 69.2354 75.7181 69.1654 75.8207 69.0254C75.9234 68.8854 75.9747 68.6474 75.9747 68.3114V65.2734C75.9747 64.7227 75.8907 64.3401 75.7227 64.1254C75.5547 63.9107 75.2934 63.8034 74.9387 63.8034C74.6774 63.8034 74.4394 63.8921 74.2247 64.0694C74.0194 64.2467 73.8514 64.4847 73.7207 64.7834C73.5994 65.0821 73.5387 65.4087 73.5387 65.7634V68.2834C73.5387 68.6381 73.5947 68.8854 73.7067 69.0254C73.8281 69.1654 74.0054 69.2354 74.2387 69.2354C74.3881 69.2354 74.4627 69.3101 74.4627 69.4594C74.4627 69.6181 74.3881 69.6974 74.2387 69.6974C74.1734 69.6974 74.0521 69.6927 73.8747 69.6834C73.7067 69.6741 73.5247 69.6694 73.3287 69.6694C73.1327 69.6601 72.9507 69.6554 72.7827 69.6554C72.6241 69.6554 72.4374 69.6601 72.2227 69.6694C72.0081 69.6694 71.8121 69.6741 71.6347 69.6834C71.4574 69.6927 71.3314 69.6974 71.2567 69.6974C71.1167 69.6974 71.0467 69.6181 71.0467 69.4594C71.0467 69.3101 71.1167 69.2354 71.2567 69.2354C71.5554 69.2354 71.7561 69.1654 71.8587 69.0254C71.9707 68.8854 72.0267 68.6474 72.0267 68.3114V65.2734C72.0267 64.7414 71.9334 64.3587 71.7467 64.1254C71.5601 63.8921 71.2894 63.7754 70.9347 63.7754C70.5427 63.7754 70.2254 63.9387 69.9827 64.2654C69.7401 64.5827 69.6187 64.9841 69.6187 65.4694V68.2834C69.6187 68.6381 69.6794 68.8854 69.8007 69.0254C69.9221 69.1654 70.1087 69.2354 70.3607 69.2354C70.5007 69.2354 70.5707 69.3101 70.5707 69.4594C70.5707 69.6181 70.5007 69.6974 70.3607 69.6974C70.2954 69.6974 70.1741 69.6927 69.9967 69.6834C69.8194 69.6741 69.6281 69.6694 69.4227 69.6694C69.2174 69.6601 69.0307 69.6554 68.8627 69.6554C68.7041 69.6554 68.5127 69.6601 68.2887 69.6694C68.0647 69.6694 67.8594 69.6741 67.6727 69.6834C67.4861 69.6927 67.3554 69.6974 67.2807 69.6974ZM79.437 69.6974C79.2877 69.6974 79.213 69.6227 79.213 69.4734C79.213 69.3147 79.2877 69.2354 79.437 69.2354C79.7917 69.2354 80.0297 69.1607 80.151 69.0114C80.2723 68.8621 80.333 68.6194 80.333 68.2834V64.3074C80.333 64.0461 80.305 63.8734 80.249 63.7894C80.2023 63.6961 80.1137 63.6447 79.983 63.6354C79.9177 63.6261 79.8057 63.6167 79.647 63.6074C79.4977 63.5887 79.3903 63.5747 79.325 63.5654C79.1943 63.5374 79.129 63.4581 79.129 63.3274C79.129 63.1781 79.199 63.1034 79.339 63.1034C79.367 63.1034 79.4837 63.1034 79.689 63.1034C79.8943 63.0941 80.123 63.0894 80.375 63.0894C80.6363 63.0894 80.8743 63.0894 81.089 63.0894C81.3037 63.0801 81.439 63.0754 81.495 63.0754C81.7283 63.0754 81.845 63.1827 81.845 63.3974V68.2834C81.845 68.6194 81.901 68.8621 82.013 69.0114C82.125 69.1607 82.3303 69.2354 82.629 69.2354C82.769 69.2354 82.839 69.3147 82.839 69.4734C82.839 69.6227 82.769 69.6974 82.629 69.6974C82.5637 69.6974 82.4377 69.6927 82.251 69.6834C82.0643 69.6741 81.8637 69.6694 81.649 69.6694C81.4343 69.6601 81.243 69.6554 81.075 69.6554C80.9163 69.6554 80.7203 69.6601 80.487 69.6694C80.2537 69.6694 80.0343 69.6741 79.829 69.6834C79.633 69.6927 79.5023 69.6974 79.437 69.6974ZM80.977 61.5494C80.697 61.5494 80.459 61.4514 80.263 61.2554C80.067 61.0594 79.969 60.8214 79.969 60.5414C79.969 60.2614 80.067 60.0234 80.263 59.8274C80.459 59.6314 80.697 59.5334 80.977 59.5334C81.257 59.5334 81.495 59.6314 81.691 59.8274C81.887 60.0234 81.985 60.2614 81.985 60.5414C81.985 60.8214 81.887 61.0594 81.691 61.2554C81.495 61.4514 81.257 61.5494 80.977 61.5494ZM86.9157 69.8654C86.2624 69.8654 85.7257 69.6974 85.3057 69.3614C84.8951 69.0254 84.6897 68.4887 84.6897 67.7514V64.2934C84.6897 64.0787 84.6664 63.9201 84.6197 63.8174C84.5824 63.7147 84.4937 63.6494 84.3537 63.6214C84.2791 63.6027 84.1857 63.5887 84.0737 63.5794C83.9711 63.5701 83.8824 63.5607 83.8077 63.5514C83.6771 63.5234 83.6117 63.4441 83.6117 63.3134C83.6117 63.1641 83.6817 63.0894 83.8217 63.0894C83.8497 63.0894 83.9571 63.0894 84.1437 63.0894C84.3397 63.0801 84.5591 63.0754 84.8017 63.0754C85.0444 63.0754 85.2637 63.0754 85.4597 63.0754C85.6651 63.0661 85.7957 63.0614 85.8517 63.0614C86.0851 63.0614 86.2017 63.1827 86.2017 63.4254V67.5274C86.2017 68.0127 86.3231 68.3674 86.5657 68.5914C86.8084 68.8154 87.1257 68.9274 87.5177 68.9274C88.0124 68.9274 88.3764 68.7734 88.6097 68.4654C88.8524 68.1481 88.9737 67.7747 88.9737 67.3454V64.2934C88.9737 64.0787 88.9504 63.9201 88.9037 63.8174C88.8664 63.7147 88.7777 63.6494 88.6377 63.6214C88.5631 63.6027 88.4697 63.5887 88.3577 63.5794C88.2551 63.5701 88.1664 63.5607 88.0917 63.5514C87.9611 63.5234 87.8957 63.4441 87.8957 63.3134C87.8957 63.1641 87.9657 63.0894 88.1057 63.0894C88.1337 63.0894 88.2411 63.0894 88.4277 63.0894C88.6237 63.0801 88.8431 63.0754 89.0857 63.0754C89.3284 63.0754 89.5477 63.0754 89.7437 63.0754C89.9491 63.0661 90.0797 63.0614 90.1357 63.0614C90.3691 63.0614 90.4857 63.1827 90.4857 63.4254V68.4794C90.4857 68.7407 90.5091 68.9087 90.5557 68.9834C90.6117 69.0581 90.7004 69.1094 90.8217 69.1374C90.8871 69.1467 90.9431 69.1607 90.9897 69.1794C91.0457 69.1887 91.0971 69.2027 91.1437 69.2214C91.2837 69.2307 91.3537 69.3054 91.3537 69.4454C91.3537 69.5947 91.2791 69.6694 91.1297 69.6694C91.1017 69.6694 91.0084 69.6741 90.8497 69.6834C90.6911 69.6834 90.5044 69.6834 90.2897 69.6834C90.0844 69.6834 89.8931 69.6881 89.7157 69.6974C89.5477 69.6974 89.4357 69.6974 89.3797 69.6974C89.1557 69.6974 89.0391 69.5901 89.0297 69.3754C89.0297 69.3007 89.0251 69.1794 89.0157 69.0114C89.0064 68.8341 88.9924 68.7081 88.9737 68.6334C88.9551 68.6427 88.9037 68.7127 88.8197 68.8434C88.7357 68.9647 88.6144 69.1047 88.4557 69.2634C88.2971 69.4221 88.0917 69.5621 87.8397 69.6834C87.5877 69.8047 87.2797 69.8654 86.9157 69.8654ZM92.3413 69.6974C92.2013 69.6974 92.1313 69.6181 92.1313 69.4594C92.1313 69.3101 92.2013 69.2354 92.3413 69.2354C92.6586 69.2354 92.8733 69.1654 92.9853 69.0254C93.1066 68.8854 93.1673 68.6474 93.1673 68.3114V64.2794C93.1673 64.0834 93.1533 63.9294 93.1253 63.8174C93.0973 63.7054 93.0226 63.6447 92.9013 63.6354C92.8359 63.6261 92.7379 63.6121 92.6073 63.5934C92.4766 63.5747 92.3786 63.5607 92.3133 63.5514C92.1826 63.5327 92.1173 63.4581 92.1173 63.3274C92.1173 63.1781 92.1873 63.1034 92.3273 63.1034C92.3553 63.1034 92.4579 63.1034 92.6353 63.1034C92.8219 63.0941 93.0273 63.0894 93.2513 63.0894C93.4846 63.0894 93.6946 63.0894 93.8813 63.0894C94.0773 63.0801 94.2033 63.0754 94.2593 63.0754C94.4926 63.0754 94.6093 63.1967 94.6093 63.4394V64.1674C94.7213 63.9807 94.8566 63.7941 95.0153 63.6074C95.1833 63.4114 95.3839 63.2481 95.6173 63.1174C95.8599 62.9774 96.1539 62.9074 96.4993 62.9074C96.7979 62.9074 97.0919 62.9541 97.3813 63.0474C97.6706 63.1314 97.9179 63.2761 98.1233 63.4814C98.3379 63.6867 98.4686 63.9714 98.5153 64.3354C98.5806 64.1861 98.6833 63.9994 98.8233 63.7754C98.9726 63.5514 99.1826 63.3507 99.4533 63.1734C99.7239 62.9961 100.069 62.9074 100.489 62.9074C101.133 62.9074 101.637 63.0754 102.001 63.4114C102.365 63.7474 102.547 64.2887 102.547 65.0354V68.2834C102.547 68.6381 102.599 68.8854 102.701 69.0254C102.804 69.1654 102.944 69.2354 103.121 69.2354C103.271 69.2354 103.345 69.3101 103.345 69.4594C103.345 69.6181 103.271 69.6974 103.121 69.6974C103.019 69.6974 102.832 69.6927 102.561 69.6834C102.291 69.6647 102.034 69.6554 101.791 69.6554C101.633 69.6554 101.451 69.6601 101.245 69.6694C101.049 69.6694 100.867 69.6741 100.699 69.6834C100.531 69.6927 100.41 69.6974 100.335 69.6974C100.195 69.6974 100.125 69.6181 100.125 69.4594C100.125 69.3101 100.195 69.2354 100.335 69.2354C100.597 69.2354 100.779 69.1654 100.881 69.0254C100.984 68.8854 101.035 68.6474 101.035 68.3114V65.2734C101.035 64.7227 100.951 64.3401 100.783 64.1254C100.615 63.9107 100.354 63.8034 99.9993 63.8034C99.7379 63.8034 99.4999 63.8921 99.2853 64.0694C99.0799 64.2467 98.9119 64.4847 98.7813 64.7834C98.6599 65.0821 98.5993 65.4087 98.5993 65.7634V68.2834C98.5993 68.6381 98.6553 68.8854 98.7673 69.0254C98.8886 69.1654 99.0659 69.2354 99.2993 69.2354C99.4486 69.2354 99.5233 69.3101 99.5233 69.4594C99.5233 69.6181 99.4486 69.6974 99.2993 69.6974C99.2339 69.6974 99.1126 69.6927 98.9353 69.6834C98.7673 69.6741 98.5853 69.6694 98.3893 69.6694C98.1933 69.6601 98.0113 69.6554 97.8433 69.6554C97.6846 69.6554 97.4979 69.6601 97.2833 69.6694C97.0686 69.6694 96.8726 69.6741 96.6953 69.6834C96.5179 69.6927 96.3919 69.6974 96.3173 69.6974C96.1773 69.6974 96.1073 69.6181 96.1073 69.4594C96.1073 69.3101 96.1773 69.2354 96.3173 69.2354C96.6159 69.2354 96.8166 69.1654 96.9193 69.0254C97.0313 68.8854 97.0873 68.6474 97.0873 68.3114V65.2734C97.0873 64.7414 96.9939 64.3587 96.8073 64.1254C96.6206 63.8921 96.3499 63.7754 95.9953 63.7754C95.6033 63.7754 95.2859 63.9387 95.0433 64.2654C94.8006 64.5827 94.6793 64.9841 94.6793 65.4694V68.2834C94.6793 68.6381 94.7399 68.8854 94.8613 69.0254C94.9826 69.1654 95.1693 69.2354 95.4213 69.2354C95.5613 69.2354 95.6313 69.3101 95.6313 69.4594C95.6313 69.6181 95.5613 69.6974 95.4213 69.6974C95.3559 69.6974 95.2346 69.6927 95.0573 69.6834C94.8799 69.6741 94.6886 69.6694 94.4833 69.6694C94.2779 69.6601 94.0913 69.6554 93.9233 69.6554C93.7646 69.6554 93.5733 69.6601 93.3493 69.6694C93.1253 69.6694 92.9199 69.6741 92.7333 69.6834C92.5466 69.6927 92.4159 69.6974 92.3413 69.6974Z" fill="black"/>
<defs>
<linearGradient id="paint0_linear_601_315" x1="47.2771" y1="38.5859" x2="51.0702" y2="38.5859" gradientUnits="userSpaceOnUse">
<stop stop-color="#95B83D"/>
</linearGradient>
<linearGradient id="paint1_linear_601_315" x1="66.7292" y1="39.0301" x2="70.5223" y2="39.0301" gradientUnits="userSpaceOnUse">
<stop stop-color="#95B83D"/>
</linearGradient>
<linearGradient id="paint2_linear_601_315" x1="66.7292" y1="39.0301" x2="70.5223" y2="39.0301" gradientUnits="userSpaceOnUse">
<stop stop-color="white"/>
</linearGradient>
<linearGradient id="paint3_linear_601_315" x1="85.0231" y1="42.2043" x2="90.3175" y2="42.2043" gradientUnits="userSpaceOnUse">
<stop stop-color="#95B83D"/>
</linearGradient>
<linearGradient id="paint4_linear_601_315" x1="85.0231" y1="42.2043" x2="90.3175" y2="42.2043" gradientUnits="userSpaceOnUse">
<stop stop-color="white"/>
</linearGradient>
<linearGradient id="paint5_linear_601_315" x1="24.4889" y1="37.1778" x2="32.5542" y2="37.1778" gradientUnits="userSpaceOnUse">
<stop stop-color="#95B83D"/>
</linearGradient>
</defs>
</svg>
